<?xml version="1.0" encoding="UTF-8" standalone="no"?>
<svg
   version="1.1"
   x="0px"
   y="0px"
   viewBox="0 0 32 40"
   enable-background="new 0 0 32 32"
   xml:space="preserve"
   id="svg6"
   sodipodi:docname="logo.svg"
   inkscape:version="1.3.2 (091e20ef0f, 2023-11-25)"
   xmlns:inkscape="http://www.inkscape.org/namespaces/inkscape"
   xmlns:sodipodi="http://sodipodi.sourceforge.net/DTD/sodipodi-0.dtd"
   xmlns="http://www.w3.org/2000/svg"
   xmlns:svg="http://www.w3.org/2000/svg"><defs
     id="defs6" /><sodipodi:namedview
     id="namedview6"
     pagecolor="#505050"
     bordercolor="#ffffff"
     borderopacity="1"
     inkscape:showpageshadow="0"
     inkscape:pageopacity="0"
     inkscape:pagecheckerboard="1"
     inkscape:deskcolor="#505050"
     inkscape:zoom="20.925"
     inkscape:cx="16.009558"
     inkscape:cy="20.023895"
     inkscape:window-width="1717"
     inkscape:window-height="928"
     inkscape:window-x="26"
     inkscape:window-y="23"
     inkscape:window-maximized="0"
     inkscape:current-layer="svg6" /><g
     id="g5"
     style="fill:#00bd7e;fill-opacity:1"><path
       d="M29,5h-2V3c0-0.5527344-0.4477539-1-1-1h-5.1713867C19.0556641,2,17.3725586,2.5859375,16,3.6650391   C14.6274414,2.5859375,12.9443359,2,11.1713867,2H6C5.4477539,2,5,2.4472656,5,3v2H3C2.4477539,5,2,5.4472656,2,6v21   c0,0.5527344,0.4477539,1,1,1h8.1713867c1.5566406,0,3.0205078,0.6064453,4.121582,1.7070313   C15.4882813,29.9023438,15.7441406,30,16,30s0.5117188-0.0976563,0.7070313-0.2929688   C17.8081055,28.6064453,19.2719727,28,20.8286133,28H29c0.5522461,0,1-0.4472656,1-1V6C30,5.4472656,29.5522461,5,29,5z M7,4   h4.1713867c1.5566406,0,3.0205078,0.6064453,4.121582,1.7070313c0.390625,0.390625,1.0234375,0.390625,1.4140625,0   C17.8081055,4.6064453,19.2719727,4,20.8286133,4H25v19h-4.1713867C19.0556641,23,17.3725586,23.5859375,16,24.6650391   C14.6274414,23.5859375,12.9443359,23,11.1713867,23H7V4z M28,26h-7.1713867C19.0556641,26,17.3725586,26.5859375,16,27.6650391   C14.6274414,26.5859375,12.9443359,26,11.1713867,26H4V7h1v17c0,0.5527344,0.4477539,1,1,1h5.1713867   c1.5566406,0,3.0205078,0.6064453,4.121582,1.7070313C15.4882813,26.9023438,15.7441406,27,16,27   s0.5117188-0.0976563,0.7070313-0.2929688C17.8081055,25.6064453,19.2719727,25,20.8286133,25H26c0.5522461,0,1-0.4472656,1-1V7h1   V26z"
       id="path1"
       style="fill:#00bd7e;fill-opacity:1" /><path
       d="M12,14c2.2055664,0,4-1.7939453,4-4s-1.7944336-4-4-4s-4,1.7939453-4,4S9.7944336,14,12,14z M12,12   c-0.1778564,0-0.347168-0.0307617-0.5114136-0.0745239l2.4368286-2.4368286C13.9691772,9.6528931,14,9.8222046,14,10   C14,11.1025391,13.1030273,12,12,12z M12,8c0.1778564,0,0.347168,0.0307617,0.5114136,0.0745239l-2.4368286,2.4368286   C10.0308228,10.3471069,10,10.1777954,10,10C10,8.8974609,10.8969727,8,12,8z"
       id="path2"
       style="fill:#00bd7e;fill-opacity:1" /><path
       d="M15.8701172,21.4931641c0.1777344-0.3144531,0.1728516-0.6992188-0.0126953-1.0078125l-3-5   c-0.3613281-0.6015625-1.3535156-0.6015625-1.7148438,0l-3,5c-0.1855469,0.3085938-0.1904297,0.6933594-0.0126953,1.0078125   C8.3071289,21.8066406,8.6396484,22,9,22h6C15.3603516,22,15.6928711,21.8066406,15.8701172,21.4931641z M10.7661133,20   L12,17.9433594L13.2338867,20H10.7661133z"
       id="path3"
       style="fill:#00bd7e;fill-opacity:1" /><path
       d="M19.2929688,12.7070313C19.4882813,12.9023438,19.7441406,13,20,13s0.5117188-0.0976563,0.7070313-0.2929688   c0.390625-0.390625,0.390625-1.0234375,0-1.4140625L20.4140625,11H23c0.5522461,0,1-0.4472656,1-1s-0.4477539-1-1-1h-2.5859375   l0.2929688-0.2929688c0.390625-0.390625,0.390625-1.0234375,0-1.4140625s-1.0234375-0.390625-1.4140625,0l-2,2   c-0.390625,0.390625-0.390625,1.0234375,0,1.4140625L19.2929688,12.7070313z"
       id="path4"
       style="fill:#00bd7e;fill-opacity:1" /><path
       d="M18,19h2.5859375l-0.2929688,0.2929688c-0.390625,0.390625-0.390625,1.0234375,0,1.4140625   C20.4882813,20.9023438,20.7441406,21,21,21s0.5117188-0.0976563,0.7070313-0.2929688l2-2   c0.390625-0.390625,0.390625-1.0234375,0-1.4140625l-2-2c-0.390625-0.390625-1.0234375-0.390625-1.4140625,0   s-0.390625,1.0234375,0,1.4140625L20.5859375,17H18c-0.5522461,0-1,0.4472656-1,1S17.4477539,19,18,19z"
       id="path5"
       style="fill:#00bd7e;fill-opacity:1" /></g><text
     x="0"
     y="47"
     fill="#000000"
     font-size="5px"
     font-weight="bold"
     font-family="'Helvetica Neue', Helvetica, Arial-Unicode, Arial, Sans-serif"
     id="text5">Created by M. Oki Orlando</text><text
     x="0"
     y="52"
     fill="#000000"
     font-size="5px"
     font-weight="bold"
     font-family="'Helvetica Neue', Helvetica, Arial-Unicode, Arial, Sans-serif"
     id="text6">from the Noun Project</text></svg>
